G04 #@! TF.FileFunction,Legend,Bot*
%FSLAX46Y46*%
G04 Gerber Fmt 4.6, Leading zero omitted, Abs format (unit mm)*
G04 Created by KiCad (PCBNEW 4.0.7-e2-6376~58~ubuntu14.04.1) date Fri May 17 06:13:42 2019*
%MOMM*%
%LPD*%
G01*
G04 APERTURE LIST*
%ADD10C,0.100000*%
%ADD11C,0.300000*%
%ADD12C,0.120000*%
G04 APERTURE END LIST*
D10*
D11*
X123135715Y-36671429D02*
X123135715Y-38171429D01*
X124350001Y-37457143D02*
X123850001Y-37457143D01*
X123850001Y-36671429D02*
X123850001Y-38171429D01*
X124564287Y-38171429D01*
X126207143Y-37100000D02*
X126921429Y-37100000D01*
X126064286Y-36671429D02*
X126564286Y-38171429D01*
X127064286Y-36671429D01*
X127564286Y-36671429D02*
X127564286Y-38171429D01*
X128064286Y-37100000D01*
X128564286Y-38171429D01*
X128564286Y-36671429D01*
X129278572Y-36671429D02*
X129278572Y-38171429D01*
X129850000Y-38171429D01*
X129992858Y-38100000D01*
X130064286Y-38028571D01*
X130135715Y-37885714D01*
X130135715Y-37671429D01*
X130064286Y-37528571D01*
X129992858Y-37457143D01*
X129850000Y-37385714D01*
X129278572Y-37385714D01*
X137778571Y-38028571D02*
X137850000Y-38100000D01*
X137992857Y-38171429D01*
X138350000Y-38171429D01*
X138492857Y-38100000D01*
X138564286Y-38028571D01*
X138635714Y-37885714D01*
X138635714Y-37742857D01*
X138564286Y-37528571D01*
X137707143Y-36671429D01*
X138635714Y-36671429D01*
X140207142Y-38171429D02*
X141064285Y-38171429D01*
X140635714Y-36671429D02*
X140635714Y-38171429D01*
X141849999Y-38171429D02*
X142135713Y-38171429D01*
X142278571Y-38100000D01*
X142421428Y-37957143D01*
X142492856Y-37671429D01*
X142492856Y-37171429D01*
X142421428Y-36885714D01*
X142278571Y-36742857D01*
X142135713Y-36671429D01*
X141849999Y-36671429D01*
X141707142Y-36742857D01*
X141564285Y-36885714D01*
X141492856Y-37171429D01*
X141492856Y-37671429D01*
X141564285Y-37957143D01*
X141707142Y-38100000D01*
X141849999Y-38171429D01*
X143135714Y-36671429D02*
X143135714Y-38171429D01*
X143992857Y-36671429D01*
X143992857Y-38171429D01*
X144707143Y-37457143D02*
X145207143Y-37457143D01*
X145421429Y-36671429D02*
X144707143Y-36671429D01*
X144707143Y-38171429D01*
X145421429Y-38171429D01*
X108885715Y-36671429D02*
X108385715Y-37385714D01*
X108028572Y-36671429D02*
X108028572Y-38171429D01*
X108600000Y-38171429D01*
X108742858Y-38100000D01*
X108814286Y-38028571D01*
X108885715Y-37885714D01*
X108885715Y-37671429D01*
X108814286Y-37528571D01*
X108742858Y-37457143D01*
X108600000Y-37385714D01*
X108028572Y-37385714D01*
X110028572Y-37457143D02*
X109528572Y-37457143D01*
X109528572Y-36671429D02*
X109528572Y-38171429D01*
X110242858Y-38171429D01*
X111957143Y-36671429D02*
X111957143Y-38171429D01*
X112671429Y-36671429D02*
X112671429Y-38171429D01*
X113528572Y-36671429D01*
X113528572Y-38171429D01*
X115314286Y-37100000D02*
X116028572Y-37100000D01*
X115171429Y-36671429D02*
X115671429Y-38171429D01*
X116171429Y-36671429D01*
X116671429Y-36671429D02*
X116671429Y-38171429D01*
X117171429Y-37100000D01*
X117671429Y-38171429D01*
X117671429Y-36671429D01*
X118385715Y-36671429D02*
X118385715Y-38171429D01*
X118957143Y-38171429D01*
X119100001Y-38100000D01*
X119171429Y-38028571D01*
X119242858Y-37885714D01*
X119242858Y-37671429D01*
X119171429Y-37528571D01*
X119100001Y-37457143D01*
X118957143Y-37385714D01*
X118385715Y-37385714D01*
X100421429Y-36671429D02*
X99921429Y-37385714D01*
X99564286Y-36671429D02*
X99564286Y-38171429D01*
X100135714Y-38171429D01*
X100278572Y-38100000D01*
X100350000Y-38028571D01*
X100421429Y-37885714D01*
X100421429Y-37671429D01*
X100350000Y-37528571D01*
X100278572Y-37457143D01*
X100135714Y-37385714D01*
X99564286Y-37385714D01*
X101564286Y-37457143D02*
X101064286Y-37457143D01*
X101064286Y-36671429D02*
X101064286Y-38171429D01*
X101778572Y-38171429D01*
X116528571Y-121528571D02*
X116028571Y-123028571D01*
X115528571Y-121528571D01*
X114528571Y-122242857D02*
X115028571Y-122242857D01*
X115028571Y-123028571D02*
X115028571Y-121528571D01*
X114314285Y-121528571D01*
X113457143Y-121528571D02*
X113171429Y-121528571D01*
X113028571Y-121600000D01*
X112885714Y-121742857D01*
X112814286Y-122028571D01*
X112814286Y-122528571D01*
X112885714Y-122814286D01*
X113028571Y-122957143D01*
X113171429Y-123028571D01*
X113457143Y-123028571D01*
X113600000Y-122957143D01*
X113742857Y-122814286D01*
X113814286Y-122528571D01*
X113814286Y-122028571D01*
X113742857Y-121742857D01*
X113600000Y-121600000D01*
X113457143Y-121528571D01*
X100242857Y-123028571D02*
X100242857Y-121528571D01*
X99028571Y-122242857D02*
X99528571Y-122242857D01*
X99528571Y-123028571D02*
X99528571Y-121528571D01*
X98814285Y-121528571D01*
X81421429Y-119992856D02*
X81421429Y-119064285D01*
X80850000Y-119564285D01*
X80850000Y-119349999D01*
X80778571Y-119207142D01*
X80707143Y-119135713D01*
X80564286Y-119064285D01*
X80207143Y-119064285D01*
X80064286Y-119135713D01*
X79992857Y-119207142D01*
X79921429Y-119349999D01*
X79921429Y-119778571D01*
X79992857Y-119921428D01*
X80064286Y-119992856D01*
X81278571Y-118492857D02*
X81350000Y-118421428D01*
X81421429Y-118278571D01*
X81421429Y-117921428D01*
X81350000Y-117778571D01*
X81278571Y-117707142D01*
X81135714Y-117635714D01*
X80992857Y-117635714D01*
X80778571Y-117707142D01*
X79921429Y-118564285D01*
X79921429Y-117635714D01*
X79921429Y-116350000D02*
X81421429Y-116350000D01*
X79992857Y-116350000D02*
X79921429Y-116492857D01*
X79921429Y-116778571D01*
X79992857Y-116921429D01*
X80064286Y-116992857D01*
X80207143Y-117064286D01*
X80635714Y-117064286D01*
X80778571Y-116992857D01*
X80850000Y-116921429D01*
X80921429Y-116778571D01*
X80921429Y-116492857D01*
X80850000Y-116350000D01*
X80707143Y-115135714D02*
X80635714Y-114921428D01*
X80564286Y-114850000D01*
X80421429Y-114778571D01*
X80207143Y-114778571D01*
X80064286Y-114850000D01*
X79992857Y-114921428D01*
X79921429Y-115064286D01*
X79921429Y-115635714D01*
X81421429Y-115635714D01*
X81421429Y-115135714D01*
X81350000Y-114992857D01*
X81278571Y-114921428D01*
X81135714Y-114850000D01*
X80992857Y-114850000D01*
X80850000Y-114921428D01*
X80778571Y-114992857D01*
X80707143Y-115135714D01*
X80707143Y-115635714D01*
X81421429Y-108992856D02*
X81421429Y-108064285D01*
X80850000Y-108564285D01*
X80850000Y-108349999D01*
X80778571Y-108207142D01*
X80707143Y-108135713D01*
X80564286Y-108064285D01*
X80207143Y-108064285D01*
X80064286Y-108135713D01*
X79992857Y-108207142D01*
X79921429Y-108349999D01*
X79921429Y-108778571D01*
X79992857Y-108921428D01*
X80064286Y-108992856D01*
X81278571Y-107492857D02*
X81350000Y-107421428D01*
X81421429Y-107278571D01*
X81421429Y-106921428D01*
X81350000Y-106778571D01*
X81278571Y-106707142D01*
X81135714Y-106635714D01*
X80992857Y-106635714D01*
X80778571Y-106707142D01*
X79921429Y-107564285D01*
X79921429Y-106635714D01*
X79921429Y-105350000D02*
X81421429Y-105350000D01*
X79992857Y-105350000D02*
X79921429Y-105492857D01*
X79921429Y-105778571D01*
X79992857Y-105921429D01*
X80064286Y-105992857D01*
X80207143Y-106064286D01*
X80635714Y-106064286D01*
X80778571Y-105992857D01*
X80850000Y-105921429D01*
X80921429Y-105778571D01*
X80921429Y-105492857D01*
X80850000Y-105350000D01*
X80707143Y-104135714D02*
X80635714Y-103921428D01*
X80564286Y-103850000D01*
X80421429Y-103778571D01*
X80207143Y-103778571D01*
X80064286Y-103850000D01*
X79992857Y-103921428D01*
X79921429Y-104064286D01*
X79921429Y-104635714D01*
X81421429Y-104635714D01*
X81421429Y-104135714D01*
X81350000Y-103992857D01*
X81278571Y-103921428D01*
X81135714Y-103850000D01*
X80992857Y-103850000D01*
X80850000Y-103921428D01*
X80778571Y-103992857D01*
X80707143Y-104135714D01*
X80707143Y-104635714D01*
X81278571Y-97921428D02*
X81350000Y-97849999D01*
X81421429Y-97707142D01*
X81421429Y-97349999D01*
X81350000Y-97207142D01*
X81278571Y-97135713D01*
X81135714Y-97064285D01*
X80992857Y-97064285D01*
X80778571Y-97135713D01*
X79921429Y-97992856D01*
X79921429Y-97064285D01*
X80921429Y-95778571D02*
X79921429Y-95778571D01*
X81492857Y-96135714D02*
X80421429Y-96492857D01*
X80421429Y-95564285D01*
X79921429Y-94350000D02*
X81421429Y-94350000D01*
X79992857Y-94350000D02*
X79921429Y-94492857D01*
X79921429Y-94778571D01*
X79992857Y-94921429D01*
X80064286Y-94992857D01*
X80207143Y-95064286D01*
X80635714Y-95064286D01*
X80778571Y-94992857D01*
X80850000Y-94921429D01*
X80921429Y-94778571D01*
X80921429Y-94492857D01*
X80850000Y-94350000D01*
X80707143Y-93135714D02*
X80635714Y-92921428D01*
X80564286Y-92850000D01*
X80421429Y-92778571D01*
X80207143Y-92778571D01*
X80064286Y-92850000D01*
X79992857Y-92921428D01*
X79921429Y-93064286D01*
X79921429Y-93635714D01*
X81421429Y-93635714D01*
X81421429Y-93135714D01*
X81350000Y-92992857D01*
X81278571Y-92921428D01*
X81135714Y-92850000D01*
X80992857Y-92850000D01*
X80850000Y-92921428D01*
X80778571Y-92992857D01*
X80707143Y-93135714D01*
X80707143Y-93635714D01*
X79921429Y-86064285D02*
X79921429Y-86921428D01*
X79921429Y-86492856D02*
X81421429Y-86492856D01*
X81207143Y-86635713D01*
X81064286Y-86778571D01*
X80992857Y-86921428D01*
X81278571Y-85492857D02*
X81350000Y-85421428D01*
X81421429Y-85278571D01*
X81421429Y-84921428D01*
X81350000Y-84778571D01*
X81278571Y-84707142D01*
X81135714Y-84635714D01*
X80992857Y-84635714D01*
X80778571Y-84707142D01*
X79921429Y-85564285D01*
X79921429Y-84635714D01*
X79921429Y-83350000D02*
X81421429Y-83350000D01*
X79992857Y-83350000D02*
X79921429Y-83492857D01*
X79921429Y-83778571D01*
X79992857Y-83921429D01*
X80064286Y-83992857D01*
X80207143Y-84064286D01*
X80635714Y-84064286D01*
X80778571Y-83992857D01*
X80850000Y-83921429D01*
X80921429Y-83778571D01*
X80921429Y-83492857D01*
X80850000Y-83350000D01*
X80707143Y-82135714D02*
X80635714Y-81921428D01*
X80564286Y-81850000D01*
X80421429Y-81778571D01*
X80207143Y-81778571D01*
X80064286Y-81850000D01*
X79992857Y-81921428D01*
X79921429Y-82064286D01*
X79921429Y-82635714D01*
X81421429Y-82635714D01*
X81421429Y-82135714D01*
X81350000Y-81992857D01*
X81278571Y-81921428D01*
X81135714Y-81850000D01*
X80992857Y-81850000D01*
X80850000Y-81921428D01*
X80778571Y-81992857D01*
X80707143Y-82135714D01*
X80707143Y-82635714D01*
X81421429Y-74492857D02*
X81421429Y-74778571D01*
X81350000Y-74921428D01*
X81278571Y-74992857D01*
X81064286Y-75135714D01*
X80778571Y-75207143D01*
X80207143Y-75207143D01*
X80064286Y-75135714D01*
X79992857Y-75064286D01*
X79921429Y-74921428D01*
X79921429Y-74635714D01*
X79992857Y-74492857D01*
X80064286Y-74421428D01*
X80207143Y-74350000D01*
X80564286Y-74350000D01*
X80707143Y-74421428D01*
X80778571Y-74492857D01*
X80850000Y-74635714D01*
X80850000Y-74921428D01*
X80778571Y-75064286D01*
X80707143Y-75135714D01*
X80564286Y-75207143D01*
X79921429Y-73064286D02*
X81421429Y-73064286D01*
X79992857Y-73064286D02*
X79921429Y-73207143D01*
X79921429Y-73492857D01*
X79992857Y-73635715D01*
X80064286Y-73707143D01*
X80207143Y-73778572D01*
X80635714Y-73778572D01*
X80778571Y-73707143D01*
X80850000Y-73635715D01*
X80921429Y-73492857D01*
X80921429Y-73207143D01*
X80850000Y-73064286D01*
X80707143Y-71850000D02*
X80635714Y-71635714D01*
X80564286Y-71564286D01*
X80421429Y-71492857D01*
X80207143Y-71492857D01*
X80064286Y-71564286D01*
X79992857Y-71635714D01*
X79921429Y-71778572D01*
X79921429Y-72350000D01*
X81421429Y-72350000D01*
X81421429Y-71850000D01*
X81350000Y-71707143D01*
X81278571Y-71635714D01*
X81135714Y-71564286D01*
X80992857Y-71564286D01*
X80850000Y-71635714D01*
X80778571Y-71707143D01*
X80707143Y-71850000D01*
X80707143Y-72350000D01*
X81421429Y-64278571D02*
X81421429Y-63350000D01*
X80850000Y-63850000D01*
X80850000Y-63635714D01*
X80778571Y-63492857D01*
X80707143Y-63421428D01*
X80564286Y-63350000D01*
X80207143Y-63350000D01*
X80064286Y-63421428D01*
X79992857Y-63492857D01*
X79921429Y-63635714D01*
X79921429Y-64064286D01*
X79992857Y-64207143D01*
X80064286Y-64278571D01*
X79921429Y-62064286D02*
X81421429Y-62064286D01*
X79992857Y-62064286D02*
X79921429Y-62207143D01*
X79921429Y-62492857D01*
X79992857Y-62635715D01*
X80064286Y-62707143D01*
X80207143Y-62778572D01*
X80635714Y-62778572D01*
X80778571Y-62707143D01*
X80850000Y-62635715D01*
X80921429Y-62492857D01*
X80921429Y-62207143D01*
X80850000Y-62064286D01*
X80707143Y-60850000D02*
X80635714Y-60635714D01*
X80564286Y-60564286D01*
X80421429Y-60492857D01*
X80207143Y-60492857D01*
X80064286Y-60564286D01*
X79992857Y-60635714D01*
X79921429Y-60778572D01*
X79921429Y-61350000D01*
X81421429Y-61350000D01*
X81421429Y-60850000D01*
X81350000Y-60707143D01*
X81278571Y-60635714D01*
X81135714Y-60564286D01*
X80992857Y-60564286D01*
X80850000Y-60635714D01*
X80778571Y-60707143D01*
X80707143Y-60850000D01*
X80707143Y-61350000D01*
X81278571Y-53207143D02*
X81350000Y-53135714D01*
X81421429Y-52992857D01*
X81421429Y-52635714D01*
X81350000Y-52492857D01*
X81278571Y-52421428D01*
X81135714Y-52350000D01*
X80992857Y-52350000D01*
X80778571Y-52421428D01*
X79921429Y-53278571D01*
X79921429Y-52350000D01*
X79921429Y-51064286D02*
X81421429Y-51064286D01*
X79992857Y-51064286D02*
X79921429Y-51207143D01*
X79921429Y-51492857D01*
X79992857Y-51635715D01*
X80064286Y-51707143D01*
X80207143Y-51778572D01*
X80635714Y-51778572D01*
X80778571Y-51707143D01*
X80850000Y-51635715D01*
X80921429Y-51492857D01*
X80921429Y-51207143D01*
X80850000Y-51064286D01*
X80707143Y-49850000D02*
X80635714Y-49635714D01*
X80564286Y-49564286D01*
X80421429Y-49492857D01*
X80207143Y-49492857D01*
X80064286Y-49564286D01*
X79992857Y-49635714D01*
X79921429Y-49778572D01*
X79921429Y-50350000D01*
X81421429Y-50350000D01*
X81421429Y-49850000D01*
X81350000Y-49707143D01*
X81278571Y-49635714D01*
X81135714Y-49564286D01*
X80992857Y-49564286D01*
X80850000Y-49635714D01*
X80778571Y-49707143D01*
X80707143Y-49850000D01*
X80707143Y-50350000D01*
X79921429Y-41350000D02*
X79921429Y-42207143D01*
X79921429Y-41778571D02*
X81421429Y-41778571D01*
X81207143Y-41921428D01*
X81064286Y-42064286D01*
X80992857Y-42207143D01*
X79921429Y-40064286D02*
X81421429Y-40064286D01*
X79992857Y-40064286D02*
X79921429Y-40207143D01*
X79921429Y-40492857D01*
X79992857Y-40635715D01*
X80064286Y-40707143D01*
X80207143Y-40778572D01*
X80635714Y-40778572D01*
X80778571Y-40707143D01*
X80850000Y-40635715D01*
X80921429Y-40492857D01*
X80921429Y-40207143D01*
X80850000Y-40064286D01*
X80707143Y-38850000D02*
X80635714Y-38635714D01*
X80564286Y-38564286D01*
X80421429Y-38492857D01*
X80207143Y-38492857D01*
X80064286Y-38564286D01*
X79992857Y-38635714D01*
X79921429Y-38778572D01*
X79921429Y-39350000D01*
X81421429Y-39350000D01*
X81421429Y-38850000D01*
X81350000Y-38707143D01*
X81278571Y-38635714D01*
X81135714Y-38564286D01*
X80992857Y-38564286D01*
X80850000Y-38635714D01*
X80778571Y-38707143D01*
X80707143Y-38850000D01*
X80707143Y-39350000D01*
D12*
X162675000Y-62135000D02*
X162675000Y-55885000D01*
X157625000Y-62135000D02*
X157625000Y-55885000D01*
X164024000Y-55580000D02*
X166684000Y-55580000D01*
X164024000Y-58180000D02*
X164024000Y-55580000D01*
X166684000Y-58180000D02*
X166684000Y-55580000D01*
X164024000Y-58180000D02*
X166684000Y-58180000D01*
X164024000Y-59450000D02*
X164024000Y-60780000D01*
X164024000Y-60780000D02*
X165354000Y-60780000D01*
X162675000Y-97967000D02*
X162675000Y-91717000D01*
X157625000Y-97967000D02*
X157625000Y-91717000D01*
X164024000Y-92650000D02*
X166684000Y-92650000D01*
X164024000Y-95250000D02*
X164024000Y-92650000D01*
X166684000Y-95250000D02*
X166684000Y-92650000D01*
X164024000Y-95250000D02*
X166684000Y-95250000D01*
X164024000Y-96520000D02*
X164024000Y-97850000D01*
X164024000Y-97850000D02*
X165354000Y-97850000D01*
X69350000Y-43250000D02*
X69350000Y-42050000D01*
X70550000Y-43250000D02*
X69350000Y-43250000D01*
X78850000Y-38750000D02*
X77650000Y-38750000D01*
X78850000Y-42950000D02*
X78850000Y-38750000D01*
X77650000Y-42950000D02*
X78850000Y-42950000D01*
X69650000Y-38750000D02*
X70850000Y-38750000D01*
X69650000Y-42950000D02*
X69650000Y-38750000D01*
X70850000Y-42950000D02*
X69650000Y-42950000D01*
X69350000Y-54250000D02*
X69350000Y-53050000D01*
X70550000Y-54250000D02*
X69350000Y-54250000D01*
X78850000Y-49750000D02*
X77650000Y-49750000D01*
X78850000Y-53950000D02*
X78850000Y-49750000D01*
X77650000Y-53950000D02*
X78850000Y-53950000D01*
X69650000Y-49750000D02*
X70850000Y-49750000D01*
X69650000Y-53950000D02*
X69650000Y-49750000D01*
X70850000Y-53950000D02*
X69650000Y-53950000D01*
X69350000Y-65250000D02*
X69350000Y-64050000D01*
X70550000Y-65250000D02*
X69350000Y-65250000D01*
X78850000Y-60750000D02*
X77650000Y-60750000D01*
X78850000Y-64950000D02*
X78850000Y-60750000D01*
X77650000Y-64950000D02*
X78850000Y-64950000D01*
X69650000Y-60750000D02*
X70850000Y-60750000D01*
X69650000Y-64950000D02*
X69650000Y-60750000D01*
X70850000Y-64950000D02*
X69650000Y-64950000D01*
X69350000Y-76250000D02*
X69350000Y-75050000D01*
X70550000Y-76250000D02*
X69350000Y-76250000D01*
X78850000Y-71750000D02*
X77650000Y-71750000D01*
X78850000Y-75950000D02*
X78850000Y-71750000D01*
X77650000Y-75950000D02*
X78850000Y-75950000D01*
X69650000Y-71750000D02*
X70850000Y-71750000D01*
X69650000Y-75950000D02*
X69650000Y-71750000D01*
X70850000Y-75950000D02*
X69650000Y-75950000D01*
X69350000Y-87250000D02*
X69350000Y-86050000D01*
X70550000Y-87250000D02*
X69350000Y-87250000D01*
X78850000Y-82750000D02*
X77650000Y-82750000D01*
X78850000Y-86950000D02*
X78850000Y-82750000D01*
X77650000Y-86950000D02*
X78850000Y-86950000D01*
X69650000Y-82750000D02*
X70850000Y-82750000D01*
X69650000Y-86950000D02*
X69650000Y-82750000D01*
X70850000Y-86950000D02*
X69650000Y-86950000D01*
X69350000Y-98250000D02*
X69350000Y-97050000D01*
X70550000Y-98250000D02*
X69350000Y-98250000D01*
X78850000Y-93750000D02*
X77650000Y-93750000D01*
X78850000Y-97950000D02*
X78850000Y-93750000D01*
X77650000Y-97950000D02*
X78850000Y-97950000D01*
X69650000Y-93750000D02*
X70850000Y-93750000D01*
X69650000Y-97950000D02*
X69650000Y-93750000D01*
X70850000Y-97950000D02*
X69650000Y-97950000D01*
X69350000Y-109250000D02*
X69350000Y-108050000D01*
X70550000Y-109250000D02*
X69350000Y-109250000D01*
X78850000Y-104750000D02*
X77650000Y-104750000D01*
X78850000Y-108950000D02*
X78850000Y-104750000D01*
X77650000Y-108950000D02*
X78850000Y-108950000D01*
X69650000Y-104750000D02*
X70850000Y-104750000D01*
X69650000Y-108950000D02*
X69650000Y-104750000D01*
X70850000Y-108950000D02*
X69650000Y-108950000D01*
X69350000Y-120250000D02*
X69350000Y-119050000D01*
X70550000Y-120250000D02*
X69350000Y-120250000D01*
X78850000Y-115750000D02*
X77650000Y-115750000D01*
X78850000Y-119950000D02*
X78850000Y-115750000D01*
X77650000Y-119950000D02*
X78850000Y-119950000D01*
X69650000Y-115750000D02*
X70850000Y-115750000D01*
X69650000Y-119950000D02*
X69650000Y-115750000D01*
X70850000Y-119950000D02*
X69650000Y-119950000D01*
M02*
