M48
;DRILL file {KiCad 4.0.7-e2-6376~58~ubuntu14.04.1} date Fri May 17 06:04:20 2019
;FORMAT={-:-/ absolute / inch / decimal}
FMAT,2
INCH,TZ
T1C0.016
T2C0.024
T3C0.028
T4C0.030
T5C0.031
T6C0.035
T7C0.039
T8C0.043
T9C0.126
T10C0.138
%
G90
G05
M72
T1
X2.7421Y-4.8327
X2.7431Y-4.4252
X2.7431Y-4.6378
X2.751Y-2.2579
X2.753Y-1.8248
X2.7569Y-3.125
X2.7569Y-3.5541
X2.7569Y-3.7707
X2.7569Y-3.9892
X2.7579Y-2.6919
X2.8346Y-4.4252
X2.8671Y-1.4656
X2.8681Y-1.6073
X2.872Y-2.0413
X2.874Y-3.3396
X2.876Y-2.4754
X2.876Y-3.7707
X2.8789Y-4.2077
X2.8789Y-4.6368
X2.8809Y-2.9094
X2.9656Y-2.2579
X2.9695Y-2.69
X2.9705Y-1.8248
X2.9715Y-3.124
X2.9715Y-4.6368
X2.9724Y-4.2077
X2.9754Y-2.9094
X2.9754Y-3.3406
X2.9754Y-3.5561
X2.9764Y-2.4754
X2.9764Y-3.7785
X2.9783Y-1.6073
X2.9833Y-2.0433
X2.9862Y-3.9892
X2.9911Y-4.7914
X2.9951Y-4.4252
X3.0236Y-1.4656
X3.0817Y-3.5561
X3.0827Y-1.8248
X3.0827Y-2.69
X3.0837Y-2.2579
X3.0837Y-3.124
X3.1083Y-4.6447
X3.1112Y-4.2136
X3.1171Y-3.3455
X3.1181Y-2.0433
X3.1201Y-2.9134
X3.1201Y-3.7785
X3.1211Y-1.6073
X3.123Y-2.4803
X3.1771Y-4.8646
X3.2313Y-4.4252
X3.2333Y-1.8248
X3.2333Y-2.69
X3.2333Y-3.9892
X3.2343Y-3.124
X3.2343Y-3.5561
X3.2352Y-2.2579
X3.247Y-4.2126
X3.248Y-1.6132
X3.248Y-2.0472
X3.248Y-2.4803
X3.248Y-2.9134
X3.248Y-3.7785
X3.248Y-4.6447
X3.249Y-3.3455
X3.3837Y-1.8246
X3.3839Y-1.6152
X3.3839Y-2.0482
X3.3839Y-2.2579
X3.3839Y-2.4803
X3.3839Y-2.69
X3.3839Y-2.9134
X3.3839Y-3.124
X3.3839Y-3.3455
X3.3839Y-3.5561
X3.3839Y-3.9902
X3.3839Y-4.2136
X3.3839Y-4.6447
X3.3868Y-3.7785
X3.4409Y-4.4252
X3.526Y-4.2717
X3.5267Y-1.825
X3.5275Y-4.1261
X3.5295Y-4.7392
X3.5315Y-2.4675
X3.532Y-3.8701
X3.5325Y-2.3209
X3.5354Y-3.3494
X3.5433Y-2.6211
X3.5581Y-1.6171
X3.6161Y-4.3799
X3.6329Y-2.0709
X3.6388Y-4.0787
X3.6615Y-2.6341
X3.6732Y-2.3031
X3.6742Y-3.8612
X3.6785Y-2.5531
X3.686Y-1.6171
X3.686Y-1.8248
X3.688Y-1.4902
X3.689Y-3.0689
X3.7106Y-4.3041
X3.7303Y-4.0423
X3.7421Y-4.6368
X3.752Y-4.2264
X3.7746Y-3.4941
X3.7866Y-4.4535
X3.7894Y-3.7825
X3.8165Y-3.9036
X3.8199Y-2.8494
X3.8219Y-1.4902
X3.8219Y-1.6171
X3.8317Y-3.378
X3.8346Y-3.2215
X3.8396Y-2.311
X3.8406Y-3.3012
X3.8453Y-4.2461
X3.8543Y-4.0256
X3.8858Y-4.7362
X3.8868Y-3.8996
X3.8957Y-2.1014
X3.9232Y-3.3012
X3.9439Y-3.1516
X3.9459Y-1.6181
X3.9764Y-2.8356
X3.9833Y-2.1457
X3.9833Y-2.2776
X3.9833Y-2.3967
X4.002Y-4.3264
X4.0157Y-1.8878
X4.0157Y-2.0433
X4.0679Y-3.7146
X4.0699Y-3.9134
X4.0876Y-2.8356
X4.0992Y-4.6681
X4.1455Y-4.3776
X4.1614Y-2.0433
X4.1614Y-2.5433
X4.1709Y-4.7716
X4.1722Y-3.0846
X4.1949Y-4.0571
X4.1959Y-2.8504
X4.2156Y-1.5236
X4.2156Y-1.6526
X4.2156Y-1.8091
X4.2215Y-3.7116
X4.2319Y-3.9288
X4.248Y-2.1634
X4.2726Y-4.2628
X4.2736Y-2.8681
X4.2736Y-4.1506
X4.2825Y-3.375
X4.2895Y-4.0492
X4.311Y-1.9626
X4.3111Y-2.3892
X4.3199Y-2.9783
X4.3219Y-4.7922
X4.3735Y-4.7462
X4.374Y-2.6417
X4.374Y-2.7707
X4.374Y-2.8681
X4.3759Y-2.4336
X4.3759Y-2.5208
X4.376Y-4.0726
X4.3771Y-4.6228
X4.394Y-4.1536
X4.4095Y-4.4651
X4.4203Y-3.3002
X4.4232Y-3.8386
X4.4232Y-3.9449
X4.4252Y-3.4547
X4.4252Y-3.5699
X4.4409Y-1.9636
X4.4409Y-4.0571
X4.4577Y-2.4222
X4.4587Y-2.5344
X4.4596Y-3.1122
X4.4685Y-4.4651
X4.4715Y-4.185
X4.4911Y-1.4843
X4.5039Y-1.6122
X4.5108Y-1.6998
X4.5197Y-2.6457
X4.5236Y-1.874
X4.528Y-3.5816
X4.5384Y-3.9114
X4.5492Y-2.8681
X4.5551Y-2.4341
X4.5559Y-4.387
X4.565Y-3.1122
X4.5709Y-4.5364
X4.5925Y-4.2461
X4.5935Y-1.7835
X4.5965Y-1.5482
X4.6132Y-4.1093
X4.6171Y-2.0541
X4.624Y-3.2825
X4.624Y-4.6742
X4.624Y-4.8012
X4.6358Y-3.6289
X4.6535Y-2.1772
X4.6545Y-2.5177
X4.6545Y-2.6447
X4.6565Y-1.6949
X4.6752Y-3.1969
X4.6929Y-1.8917
X4.7028Y-2.7028
X4.7037Y-2.9754
X4.7116Y-3.937
X4.7126Y-1.4843
X4.7135Y-3.0616
X4.7146Y-4.3652
X4.7149Y-4.5118
X4.7234Y-2.4311
X4.7449Y-4.684
X4.7667Y-1.6939
X4.7667Y-1.7943
X4.7717Y-4.2461
X4.7815Y-2.6722
X4.7864Y-1.9705
X4.7864Y-2.0541
X4.7894Y-3.5157
X4.7953Y-2.1102
X4.7972Y-3.2825
X4.7972Y-3.3947
X4.8143Y-4.9584
X4.8143Y-5.05
X4.8278Y-4.0039
X4.8711Y-3.6575
X4.8817Y-4.1092
X4.8839Y-2.7854
X4.8871Y-4.2462
X4.8878Y-3.2156
X4.8888Y-2.5177
X4.9016Y-3.0679
X4.9189Y-4.9584
X4.9281Y-1.8258
X4.936Y-1.6555
X4.9409Y-3.6634
X4.9429Y-3.4626
X4.9478Y-2.435
X4.9478Y-2.5965
X4.9645Y-4.3074
X4.9675Y-2.1102
X4.9685Y-1.9705
X4.9685Y-2.0551
X4.9902Y-4.8415
X4.9902Y-4.9941
X5.002Y-3.6053
X5.0029Y-4.0662
X5.0029Y-4.53
X5.0049Y-3.8297
X5.0118Y-1.5797
X5.0139Y-4.374
X5.0148Y-2.5177
X5.0285Y-4.6467
X5.0467Y-4.2348
X5.0915Y-3.5315
X5.1073Y-2.5935
X5.1083Y-3.437
X5.1091Y-4.158
X5.1457Y-1.9705
X5.1457Y-2.0561
X5.1457Y-2.1772
X5.1535Y-3.8602
X5.1604Y-1.4734
X5.1693Y-2.1309
X5.1703Y-4.7856
X5.1791Y-3.126
X5.1969Y-3.3337
X5.2077Y-4.6969
X5.2135Y-3.6088
X5.2147Y-4.4472
X5.2234Y-4.2913
X5.2311Y-3.7067
X5.2323Y-3.7972
X5.2352Y-2.1821
X5.2392Y-3.2067
X5.2441Y-4.9055
X5.247Y-4.0876
X5.2549Y-4.8312
X5.2717Y-2.7854
X5.2847Y-3.5244
X5.2851Y-3.438
X5.2943Y-2.4203
X5.3022Y-1.4734
X5.3022Y-2.1821
X5.312Y-2.5689
X5.315Y-5.0581
X5.3406Y-3.3081
X5.3435Y-4.0118
X5.3465Y-1.6388
X5.3465Y-1.7461
X5.3474Y-3.0581
X5.3474Y-3.1614
X5.3485Y-3.9548
X5.3632Y-4.8602
X5.377Y-1.9646
X5.377Y-2.0866
X5.4163Y-2.4665
X5.4203Y-2.3051
X5.4469Y-3.4547
X5.4537Y-4.1348
X5.4547Y-4.0079
X5.4606Y-3.565
X5.4813Y-3.1998
X5.4852Y-4.5256
X5.4852Y-5.0423
X5.4862Y-2.9616
X5.4872Y-1.4734
X5.4951Y-3.3081
X5.4951Y-4.6969
X5.4951Y-4.8671
X5.5039Y-3.8424
X5.5059Y-2.5768
X5.5059Y-2.6713
X5.5079Y-1.8061
X5.5185Y-2.3162
X5.5266Y-2.4665
X5.5394Y-3.8888
X5.5463Y-4.2904
X5.5512Y-1.7028
X5.5512Y-3.5325
X5.5512Y-3.6348
X5.5512Y-3.7648
X5.5807Y-4.0069
X5.5846Y-2.876
X5.5846Y-2.9616
X5.5846Y-3.0699
X5.5846Y-3.1998
X5.5846Y-3.3199
X5.5846Y-3.4272
X5.5906Y-2.3159
X5.5915Y-2.1663
X5.5925Y-1.8179
X5.5983Y-3.9108
X5.6467Y-2.6713
X5.6476Y-2.5768
X5.6496Y-2.4163
X5.6785Y-3.9208
X5.686Y-2.3159
X5.6959Y-2.876
X5.6959Y-2.9616
X5.7008Y-4.2028
X5.7067Y-4.8465
X5.7136Y-2.7352
X5.7195Y-3.0423
X5.7195Y-3.1457
X5.7195Y-3.2559
X5.7461Y-2.5128
X5.7559Y-1.4537
X5.7559Y-1.6358
X5.7559Y-1.7589
X5.7884Y-4.1594
X5.7943Y-2.3159
X5.8051Y-5.0453
X5.81Y-2.1516
X5.813Y-4.4469
X5.8366Y-2.7313
X5.8406Y-3.8386
X5.8406Y-3.9606
X5.8514Y-3.0423
X5.8602Y-1.5551
X5.8622Y-1.7008
X5.8622Y-1.8406
X5.8671Y-2.5856
X5.8711Y-2.2411
X5.8868Y-4.3386
X5.8947Y-4.8455
X5.9501Y-2.06
X5.9501Y-2.2166
X5.9508Y-2.8583
X5.9626Y-1.9577
X5.9931Y-1.3563
X6.0089Y-1.5374
X6.0089Y-1.628
X6.0089Y-1.7156
X6.0089Y-1.8415
X6.0157Y-2.3386
X6.0236Y-2.6112
X6.0441Y-3.0591
X6.063Y-3.6053
X6.0669Y-4.1801
X6.0807Y-3.3888
X6.0866Y-3.0945
X6.0925Y-1.6201
X6.1063Y-2.9488
X6.1093Y-3.8504
X6.1102Y-4.7146
X6.1437Y-4.3514
X6.1535Y-2.8091
X6.1555Y-2.6693
X6.1594Y-3.1102
X6.1604Y-4.4793
X6.1683Y-2.2539
X6.185Y-1.3159
X6.186Y-2.0276
X6.2008Y-2.3848
X6.2067Y-3.2057
X6.2067Y-3.7362
X6.25Y-3.4242
X6.251Y-4.0226
X6.2726Y-4.1368
X6.2726Y-4.2923
X6.2805Y-1.8248
X6.2933Y-2.7047
X6.2933Y-2.8091
X6.2953Y-2.0128
X6.2992Y-4.5384
X6.3022Y-2.3228
X6.3041Y-3.7362
X6.3346Y-3.0522
X6.3799Y-1.8248
X6.3888Y-3.9626
X6.3927Y-2.0128
X6.4045Y-2.1713
X6.4045Y-2.3228
X6.4154Y-1.5295
X6.4301Y-4.6683
X6.4341Y-4.2333
X6.435Y-3.0522
X6.4439Y-3.3671
X6.5079Y-3.2165
X6.5098Y-2.1181
X6.5108Y-1.7657
X6.5128Y-4.7864
X6.5182Y-2.9405
X6.5226Y-3.502
X6.5295Y-1.6102
X6.5364Y-2.5915
X6.5709Y-2.8002
X6.5738Y-3.313
T2
X5.5512Y-4.752
X5.6012Y-4.702
X5.6512Y-4.752
X5.7598Y-4.752
X5.8098Y-4.702
X5.8598Y-4.752
X5.9591Y-1.8701
X6.0091Y-1.9201
X6.0591Y-1.8701
T3
X3.6358Y-1.9264
X3.6358Y-2.2264
X3.8268Y-1.9264
X3.8268Y-2.2264
X3.9744Y-2.5413
X4.2744Y-2.5413
X4.311Y-1.811
X4.311Y-2.111
X4.4409Y-1.811
X4.4409Y-2.111
X6.1063Y-2.7276
X6.1063Y-3.0276
X6.11Y-3.74
X6.11Y-4.04
T4
X3.53Y-3.27
X3.5366Y-3.498
X3.5366Y-3.598
X3.5366Y-3.698
X3.55Y-4.41
X3.55Y-4.51
X3.55Y-4.61
X3.58Y-3.17
X3.63Y-3.27
X3.6366Y-3.548
X3.6366Y-3.648
X3.6366Y-3.748
X3.65Y-4.46
X3.65Y-4.56
X3.65Y-4.66
X3.68Y-3.17
X3.73Y-3.27
X3.78Y-3.17
X3.93Y-3.48
X3.9689Y-4.0409
X3.9689Y-4.1409
X3.9689Y-4.2409
X3.9744Y-1.6988
X3.98Y-3.38
X4.0244Y-1.5988
X4.03Y-3.48
X4.0689Y-4.0909
X4.0689Y-4.1909
X4.0689Y-4.2909
X4.0744Y-1.6988
X4.08Y-3.38
X4.1244Y-1.5988
X4.13Y-3.48
X4.18Y-3.38
X4.8169Y-2.437
X4.8169Y-2.5945
X4.8626Y-3.9413
X4.8626Y-4.3413
X4.9326Y-3.8963
X4.9326Y-4.3863
X4.9547Y-2.8346
X5.0047Y-2.7346
X5.0083Y-3.0984
X5.0083Y-3.1984
X5.0083Y-3.2984
X5.0272Y-1.6591
X5.0547Y-2.8346
X5.0772Y-1.5591
X5.0926Y-3.8963
X5.0926Y-4.3863
X5.1047Y-2.7346
X5.1083Y-3.1484
X5.1083Y-3.2484
X5.1083Y-3.3484
X5.1272Y-1.6591
X5.1547Y-2.8346
X5.1626Y-3.9413
X5.1626Y-4.3413
X5.1772Y-1.5591
X5.1909Y-2.437
X5.1909Y-2.5945
X5.2047Y-2.7346
X5.3031Y-3.6433
X5.3031Y-3.7433
X5.4031Y-3.6933
X5.4031Y-3.7933
X5.4685Y-2.0472
X5.5185Y-1.9472
X5.5685Y-2.0472
X5.6185Y-1.9472
X5.9488Y-2.3898
X5.9488Y-2.4898
X6.0488Y-2.4398
X6.0488Y-2.5398
X6.06Y-3.21
X6.06Y-3.31
X6.16Y-3.26
X6.16Y-3.36
T5
X6.3051Y-2.2272
X6.3051Y-2.4193
X6.3051Y-3.6379
X6.3051Y-3.83
T6
X2.8248Y-1.5433
X2.8248Y-1.6732
X2.8248Y-1.9764
X2.8248Y-2.1063
X2.8248Y-2.4094
X2.8248Y-2.5394
X2.8248Y-2.8425
X2.8248Y-2.9724
X2.8248Y-3.2756
X2.8248Y-3.4055
X2.8248Y-3.7087
X2.8248Y-3.8386
X2.8248Y-4.1417
X2.8248Y-4.2717
X2.8248Y-4.5748
X2.8248Y-4.7047
X2.9232Y-1.5433
X2.9232Y-1.6732
X2.9232Y-1.9764
X2.9232Y-2.1063
X2.9232Y-2.4094
X2.9232Y-2.5394
X2.9232Y-2.8425
X2.9232Y-2.9724
X2.9232Y-3.2756
X2.9232Y-3.4055
X2.9232Y-3.7087
X2.9232Y-3.8386
X2.9232Y-4.1417
X2.9232Y-4.2717
X2.9232Y-4.5748
X2.9232Y-4.7047
X3.0217Y-1.5433
X3.0217Y-1.6732
X3.0217Y-1.9764
X3.0217Y-2.1063
X3.0217Y-2.4094
X3.0217Y-2.5394
X3.0217Y-2.8425
X3.0217Y-2.9724
X3.0217Y-3.2756
X3.0217Y-3.4055
X3.0217Y-3.7087
X3.0217Y-3.8386
X3.0217Y-4.1417
X3.0217Y-4.2717
X3.0217Y-4.5748
X3.0217Y-4.7047
X3.7631Y-3.6884
X3.96Y-3.59
X3.96Y-3.7869
X5.8937Y-1.4528
X5.9921Y-1.2559
X6.0906Y-1.4528
X6.3366Y-2.9547
X6.3366Y-3.1516
X6.5335Y-3.0531
T7
X3.5523Y-2.9764
X3.6523Y-2.9764
X5.7405Y-4.0576
X5.8405Y-4.0576
X5.9405Y-4.0576
X6.51Y-2.2406
X6.51Y-2.3406
X6.51Y-3.7
X6.51Y-3.8
T8
X2.8709Y-1.3526
X2.8709Y-4.95
X2.9709Y-1.3526
X2.9709Y-4.95
X3.0709Y-1.3526
X3.0709Y-4.95
X3.1709Y-1.3526
X3.1709Y-4.95
X3.2709Y-1.3526
X3.2709Y-4.95
X3.75Y-4.945
X3.7606Y-1.3487
X3.85Y-4.945
X3.8606Y-1.3487
X3.95Y-4.945
X3.9606Y-1.3487
X4.05Y-4.945
X4.0606Y-1.3487
X4.15Y-4.945
X4.1606Y-1.3487
X4.2724Y-1.3487
X4.31Y-4.945
X4.3724Y-1.3487
X4.41Y-4.945
X4.4724Y-1.3487
X4.51Y-4.945
X4.5724Y-1.3487
X4.61Y-4.945
X4.6724Y-1.3487
X4.71Y-4.945
X4.7843Y-1.3487
X4.8843Y-1.3487
X4.9843Y-1.3487
X5.0843Y-1.3487
X5.1843Y-1.3487
X5.3512Y-1.3487
X5.4512Y-1.3487
X5.5472Y-4.1063
X5.5472Y-4.4063
X5.5512Y-1.3487
X5.6512Y-1.3487
X5.7512Y-1.3487
T9
X3.5433Y-1.3422
X3.5433Y-4.9606
X6.4567Y-1.3372
X6.4567Y-4.9606
T10
X5.8405Y-3.4017
T7
X6.0706Y-4.6G85X6.1494Y-4.6
G05
X6.0706Y-4.8362G85X6.1494Y-4.8362
G05
X6.295Y-4.7575G85X6.295Y-4.6787
G05
T0
M30
